<?xml version="1.0" encoding="UTF-8"?>
<svg width="640px" height="312px" viewBox="0 0 640 312" version="1.1" xmlns="http://www.w3.org/2000/svg" xmlns:xlink="http://www.w3.org/1999/xlink">
    <!-- Generator: Sketch 61 (89581) - https://sketch.com -->
    <title>Artboard</title>
    <desc>Created with Sketch.</desc>
    <defs>
        <path d="M150.13363,11.3915433 C139.962863,9.0031811 128.97954,7.7 117.522762,7.7 C82.7566771,7.7 52.3503862,19.7002774 35.77951,37.6091646 L35.8270434,100.045485 C40.1657478,105.519146 44.0948575,109.792666 47.6143725,112.866045 C50.7382841,115.593967 54.6753235,118.543907 61.6311804,122.158123 L150.13363,11.3915433 Z" id="path-1"></path>
        <filter x="-17.9%" y="-12.7%" width="132.4%" height="132.3%" filterUnits="objectBoundingBox" id="filter-2">
            <feOffset dx="-2" dy="4" in="SourceAlpha" result="shadowOffsetOuter1"></feOffset>
            <feGaussianBlur stdDeviation="5.5" in="shadowOffsetOuter1" result="shadowBlurOuter1"></feGaussianBlur>
            <feColorMatrix values="0 0 0 0 0.215686275   0 0 0 0 0.419607843   0 0 0 0 0.705882353  0 0 0 0.55 0" type="matrix" in="shadowBlurOuter1"></feColorMatrix>
        </filter>
        <path d="M61.6311804,122.158123 C77.0506847,129.033799 97.1966847,130.201176 117.401923,130.201176 C142.012695,130.201176 162.271979,127.700859 176.047658,121.420612 C185.231444,117.23378 192.558055,110.540526 198.027489,101.340851 L198.541203,36.4216075 C187.378594,24.8960015 170.122986,16.0845951 149.959661,11.3574315 C137.08449,27.60805 127.381661,39.8222524 120.851174,48.0000388 C119.579029,49.5930793 118.245396,51.2631174 116.850276,53.0101531 C108.158927,63.8938724 89.7525616,86.9431955 61.6311804,122.158123 Z" id="path-3"></path>
        <filter x="-15.0%" y="-12.2%" width="127.0%" height="131.1%" filterUnits="objectBoundingBox" id="filter-4">
            <feOffset dx="-2" dy="4" in="SourceAlpha" result="shadowOffsetOuter1"></feOffset>
            <feGaussianBlur stdDeviation="5.5" in="shadowOffsetOuter1" result="shadowBlurOuter1"></feGaussianBlur>
            <feColorMatrix values="0 0 0 0 0.149019608   0 0 0 0 0.239215686   0 0 0 0 0.435294118  0 0 0 1 0" type="matrix" in="shadowBlurOuter1"></feColorMatrix>
        </filter>
        <path d="M199.944321,105.7 C218.541828,105.7 234.320713,88.9239178 234.320713,68.244108 C234.320713,47.5642982 219.244454,30.8 200.646947,30.8 L199.944321,105.7 Z" id="path-5"></path>
        <filter x="-56.7%" y="-19.4%" width="190.2%" height="141.4%" filterUnits="objectBoundingBox" id="filter-6">
            <feOffset dx="-4" dy="1" in="SourceAlpha" result="shadowOffsetOuter1"></feOffset>
            <feGaussianBlur stdDeviation="4.5" in="shadowOffsetOuter1" result="shadowBlurOuter1"></feGaussianBlur>
            <feColorMatrix values="0 0 0 0 0   0 0 0 0 0   0 0 0 0 0  0 0 0 0.450229458 0" type="matrix" in="shadowBlurOuter1"></feColorMatrix>
        </filter>
        <path d="M2.98427949e-13,105.7 C18.5980967,105.7 33.674833,88.9330639 33.674833,68.25 C33.674833,47.5669361 18.5980967,30.8 2.98427949e-13,30.8" id="path-7"></path>
        <filter x="-44.5%" y="-13.4%" width="165.3%" height="129.4%" filterUnits="objectBoundingBox" id="filter-8">
            <feOffset dx="-4" dy="1" in="SourceAlpha" result="shadowOffsetOuter1"></feOffset>
            <feGaussianBlur stdDeviation="3" in="shadowOffsetOuter1" result="shadowBlurOuter1"></feGaussianBlur>
            <feColorMatrix values="0 0 0 0 0   0 0 0 0 0   0 0 0 0 0  0 0 0 0.5 0" type="matrix" in="shadowBlurOuter1"></feColorMatrix>
        </filter>
        <polygon id="path-9" points="212.572383 248.624893 212.572383 153.3 115.055679 185.938451 115.055679 280.7"></polygon>
        <filter x="-14.4%" y="-7.5%" width="128.7%" height="121.4%" filterUnits="objectBoundingBox" id="filter-10">
            <feMorphology radius="0.5" operator="erode" in="SourceAlpha" result="shadowSpreadOuter1"></feMorphology>
            <feOffset dx="0" dy="4" in="shadowSpreadOuter1" result="shadowOffsetOuter1"></feOffset>
            <feGaussianBlur stdDeviation="4.5" in="shadowOffsetOuter1" result="shadowBlurOuter1"></feGaussianBlur>
            <feColorMatrix values="0 0 0 0 0   0 0 0 0 0   0 0 0 0 0  0 0 0 0.507839816 0" type="matrix" in="shadowBlurOuter1"></feColorMatrix>
        </filter>
        <polygon id="path-11" points="19.5731077 248.552336 18.9420935 153.3 115.278687 185.910566 115.278687 280.7"></polygon>
        <filter x="-14.5%" y="-7.5%" width="129.1%" height="121.4%" filterUnits="objectBoundingBox" id="filter-12">
            <feMorphology radius="0.5" operator="erode" in="SourceAlpha" result="shadowSpreadOuter1"></feMorphology>
            <feOffset dx="0" dy="4" in="shadowSpreadOuter1" result="shadowOffsetOuter1"></feOffset>
            <feGaussianBlur stdDeviation="4.5" in="shadowOffsetOuter1" result="shadowBlurOuter1"></feGaussianBlur>
            <feColorMatrix values="0 0 0 0 0   0 0 0 0 0   0 0 0 0 0  0 0 0 0.507839816 0" type="matrix" in="shadowBlurOuter1"></feColorMatrix>
        </filter>
        <polygon id="path-13" points="18.9420935 153.416406 114.875037 120.4 212.572383 153.3 115.055679 186.2"></polygon>
        <filter x="-1.0%" y="-5.9%" width="102.1%" height="114.9%" filterUnits="objectBoundingBox" id="filter-14">
            <feMorphology radius="1" operator="erode" in="SourceAlpha" result="shadowSpreadOuter1"></feMorphology>
            <feOffset dx="0" dy="1" in="shadowSpreadOuter1" result="shadowOffsetOuter1"></feOffset>
            <feGaussianBlur stdDeviation="2.5" in="shadowOffsetOuter1" result="shadowBlurOuter1"></feGaussianBlur>
            <feColorMatrix values="0 0 0 0 0   0 0 0 0 0   0 0 0 0 0  0 0 0 0.5 0" type="matrix" in="shadowBlurOuter1"></feColorMatrix>
        </filter>
        <path d="M17.555445,187.839027 L19.0690083,187.780934 C19.2151624,187.775325 19.3381911,187.889258 19.3438008,188.035412 C19.3463676,188.102288 19.3235193,188.167657 19.2798503,188.218372 C19.1198787,188.404156 19.1408037,188.684446 19.3265876,188.844417 C19.3613651,188.874363 19.4005758,188.898734 19.4428223,188.916663 L39.5063081,197.431304 C42.3508789,198.638497 44.1982183,201.429292 44.1982183,204.519421 L44.1982183,220.322193 C44.1982183,224.574786 40.7508108,228.022193 36.4982183,228.022193 C35.839505,228.022193 35.1835143,227.937668 34.5463165,227.770689 L19.745399,223.892061 C18.5760769,223.585637 17.518027,222.95295 16.6947401,222.067846 C15.8846301,221.196909 15.4342984,220.051556 15.4342984,218.862098 L15.4342984,190.043149 C15.4342984,188.857866 16.3710339,187.884487 17.555445,187.839027 Z" id="path-15"></path>
        <filter x="-40.0%" y="-20.0%" width="186.9%" height="153.4%" filterUnits="objectBoundingBox" id="filter-16">
            <feMorphology radius="0.5" operator="dilate" in="SourceAlpha" result="shadowSpreadOuter1"></feMorphology>
            <feOffset dx="1" dy="4" in="shadowSpreadOuter1" result="shadowOffsetOuter1"></feOffset>
            <feGaussianBlur stdDeviation="3" in="shadowOffsetOuter1" result="shadowBlurOuter1"></feGaussianBlur>
            <feColorMatrix values="0 0 0 0 0   0 0 0 0 0   0 0 0 0 0  0 0 0 0.5 0" type="matrix" in="shadowBlurOuter1"></feColorMatrix>
        </filter>
        <path d="M190.629744,187.41022 L191.904612,187.161184 C192.245087,187.094675 192.575013,187.316768 192.641523,187.657244 C192.670192,187.804006 192.645562,187.956183 192.572062,188.086409 C192.246296,188.6636 192.450116,189.39559 193.027307,189.721356 C193.071384,189.746233 193.116991,189.768297 193.163855,189.787416 L200.110887,192.621501 L200.110887,192.621501 L211.990279,197.467775 C214.887807,198.64984 216.781737,201.46795 216.781737,204.597318 L216.781737,219.292166 L216.781737,219.292166 L216.781737,220.322193 C216.781737,224.574786 213.33433,228.022193 209.081737,228.022193 C208.423024,228.022193 207.767033,227.937668 207.129835,227.770689 L192.328918,223.892061 C191.159596,223.585637 190.101546,222.95295 189.278259,222.067846 C188.468149,221.196909 188.017817,220.051556 188.017817,218.862098 L188.017817,190.581735 C188.017817,189.035912 189.112597,187.706584 190.629744,187.41022 Z" id="path-17"></path>
        <filter x="-34.8%" y="-13.3%" width="162.6%" height="135.7%" filterUnits="objectBoundingBox" id="filter-18">
            <feOffset dx="-1" dy="3" in="SourceAlpha" result="shadowOffsetOuter1"></feOffset>
            <feGaussianBlur stdDeviation="2.5" in="shadowOffsetOuter1" result="shadowBlurOuter1"></feGaussianBlur>
            <feColorMatrix values="0 0 0 0 0   0 0 0 0 0   0 0 0 0 0  0 0 0 0.5 0" type="matrix" in="shadowBlurOuter1"></feColorMatrix>
        </filter>
    </defs>
    <g id="Artboard" stroke="none" stroke-width="1" fill="none" fill-rule="evenodd">
        <g id="Packit" transform="translate(321.000000, 112.000000)" fill-rule="nonzero">
            <path d="M13.7128906,81.0571289 L13.7128906,48.4599609 L32.0742188,48.4599609 C36.2190755,48.4599609 39.8990885,47.7723796 43.1142578,46.3972168 C46.3294271,45.022054 49.0410156,43.201416 51.2490234,40.9353027 C53.4570312,38.6691895 55.1324056,36.0738118 56.2751465,33.1491699 C57.4178874,30.224528 57.9892578,27.2320964 57.9892578,24.171875 C57.9892578,21.2666016 57.4178874,18.3806966 56.2751465,15.5141602 C55.1324056,12.6476237 53.4667155,10.0619303 51.2780762,7.75708008 C49.0894368,5.45222982 46.3875326,3.58317057 43.1723633,2.14990234 C39.957194,0.716634115 36.2578125,0 32.0742188,0 L32.0742188,0 L0,0 L0,81.0571289 L13.7128906,81.0571289 Z M29.1689453,36.9550781 L13.7128906,36.9550781 L13.7128906,11.5629883 L29.1689453,11.5629883 C31.609375,11.5629883 33.7689616,11.8728841 35.6477051,12.4926758 C37.5264486,13.1124674 39.1049805,13.9743652 40.3833008,15.0783691 C41.6616211,16.182373 42.6300456,17.4994303 43.2885742,19.029541 C43.9471029,20.5596517 44.2763672,22.2156576 44.2763672,23.9975586 C44.2763672,25.8181966 44.0148926,27.5129395 43.4919434,29.0817871 C42.9689941,30.6506348 42.1167806,32.0161133 40.9353027,33.1782227 C39.7538249,34.340332 38.2043457,35.2603353 36.2868652,35.9382324 C34.3693848,36.6161296 31.9967448,36.9550781 29.1689453,36.9550781 L29.1689453,36.9550781 Z M109.28125,82.2192383 C109.629883,82.2192383 110.046305,82.209554 110.530518,82.1901855 C111.01473,82.1708171 111.595785,82.0739746 112.273682,81.8996582 C112.951579,81.7253418 113.716634,81.4541829 114.568848,81.0861816 C115.421061,80.7181803 116.408854,80.1855469 117.532227,79.4882812 L117.532227,79.4882812 L117.532227,69.8427734 C116.33138,70.5013021 115.362956,70.8789876 114.626953,70.9758301 C113.890951,71.0726725 113.464844,71.1210938 113.348633,71.1210938 C112.418945,71.1210938 111.702311,70.8015137 111.19873,70.1623535 C110.69515,69.5231934 110.443359,68.8162435 110.443359,68.0415039 L110.443359,68.0415039 L110.443359,39.3374023 C110.443359,36.0447591 109.784831,33.2266439 108.467773,30.8830566 C107.150716,28.5394694 105.388184,26.6123047 103.180176,25.1015625 C100.972168,23.5908203 98.4252116,22.4868164 95.5393066,21.7895508 C92.6534017,21.0922852 89.6222331,20.7436523 86.4458008,20.7436523 C83.5405273,20.7436523 80.6836751,21.1503906 77.8752441,21.9638672 C75.0668132,22.7773438 72.5392253,24.0169271 70.2924805,25.6826172 C68.0457357,27.3483073 66.1960449,29.4497884 64.7434082,31.9870605 C63.2907715,34.5243327 62.4482422,37.4973958 62.2158203,40.90625 L62.2158203,40.90625 L76.1030273,40.90625 C76.2967122,39.3955078 76.722819,38.0881348 77.3813477,36.9841309 C78.0398763,35.880127 78.8436686,34.9794922 79.7927246,34.2822266 C80.7417806,33.5849609 81.7973633,33.071696 82.9594727,32.7424316 C84.121582,32.4131673 85.2836914,32.2485352 86.4458008,32.2485352 C87.6079102,32.2485352 88.7990723,32.3647461 90.0192871,32.597168 C91.239502,32.8295898 92.3435059,33.2072754 93.3312988,33.7302246 C94.3190918,34.2531738 95.1325684,34.931071 95.7717285,35.763916 C96.4108887,36.5967611 96.7304688,37.6329753 96.7304688,38.8725586 C96.7304688,40.1508789 96.2172038,41.2451986 95.1906738,42.1555176 C94.1641439,43.0658366 92.8083496,43.8889974 91.123291,44.625 C89.4382324,45.3610026 87.520752,46.0582682 85.3708496,46.7167969 C83.2209473,47.3753255 81.0323079,48.0629069 78.8049316,48.779541 C76.5775553,49.4961751 74.388916,50.2999674 72.2390137,51.190918 C70.0891113,52.0818685 68.1716309,53.1471354 66.4865723,54.3867188 C64.8015137,55.6263021 63.4457194,57.0789388 62.4191895,58.7446289 C61.3926595,60.410319 60.8793945,62.3859049 60.8793945,64.6713867 C60.8793945,67.3055013 61.3636068,69.707194 62.3320312,71.8764648 C63.3004557,74.0457357 64.6368815,75.8954264 66.3413086,77.4255371 C68.0457357,78.9556478 70.0503743,80.1371257 72.3552246,80.9699707 C74.6600749,81.8028158 77.1489258,82.2192383 79.8217773,82.2192383 C81.4487305,82.2192383 83.0175781,82.0836589 84.5283203,81.8125 C86.0390625,81.5413411 87.5498047,81.0571289 89.0605469,80.3598633 C90.5712891,79.6625977 92.1013997,78.7232259 93.6508789,77.541748 C95.2003581,76.3602702 96.8466797,74.8592122 98.5898438,73.0385742 C99.0159505,74.2781576 99.548584,75.4499512 100.187744,76.5539551 C100.826904,77.657959 101.582275,78.6263835 102.453857,79.4592285 C103.325439,80.2920736 104.332601,80.9602865 105.475342,81.4638672 C106.618083,81.9674479 107.886719,82.2192383 109.28125,82.2192383 Z M81.1000977,71.0048828 C80.2866211,71.0048828 79.4731445,70.8789876 78.659668,70.6271973 C77.8461914,70.3754069 77.119873,69.9783529 76.4807129,69.4360352 C75.8415527,68.8937174 75.3282878,68.1964518 74.940918,67.3442383 C74.5535482,66.4920247 74.3598633,65.4654948 74.3598633,64.2646484 C74.3598633,63.0250651 74.7956543,61.9501139 75.6672363,61.0397949 C76.5388184,60.1294759 77.6525065,59.3353678 79.0083008,58.6574707 C80.3640951,57.9795736 81.8845215,57.3888346 83.5695801,56.8852539 C85.2546387,56.3816732 86.930013,55.9071452 88.5957031,55.4616699 C90.2613932,55.0161947 91.8108724,54.5804036 93.2441406,54.1542969 C94.6774089,53.7281901 95.8395182,53.2439779 96.7304688,52.7016602 L96.7304688,52.7016602 L96.7304688,60.1391602 C94.5224609,63.7804362 92.03361,66.501709 89.263916,68.3029785 C86.494222,70.104248 83.7729492,71.0048828 81.1000977,71.0048828 Z M146.817383,82.2192383 C150.458659,82.2192383 153.770671,81.6575521 156.753418,80.5341797 C159.736165,79.4108073 162.331543,77.7838542 164.539551,75.6533203 C166.747559,73.5227865 168.548828,70.9467773 169.943359,67.925293 C171.337891,64.9038086 172.267578,61.4755859 172.732422,57.640625 L172.732422,57.640625 L158.496582,57.640625 C158.147949,59.461263 157.663737,61.1753743 157.043945,62.782959 C156.424154,64.3905436 155.63973,65.8044434 154.690674,67.0246582 C153.741618,68.244873 152.637614,69.2132975 151.378662,69.9299316 C150.11971,70.6465658 148.715495,71.0048828 147.166016,71.0048828 C145.151693,71.0048828 143.340739,70.4238281 141.733154,69.2617188 C140.12557,68.0996094 138.750407,66.5694987 137.607666,64.6713867 C136.464925,62.7732747 135.593343,60.5943197 134.99292,58.1345215 C134.392497,55.6747233 134.092285,53.1665039 134.092285,50.6098633 C134.092285,48.1694336 134.382812,45.8258464 134.963867,43.5791016 C135.544922,41.3323568 136.40682,39.3567708 137.549561,37.6523438 C138.692301,35.9479167 140.086833,34.5824382 141.733154,33.5559082 C143.379476,32.5293783 145.267904,32.0161133 147.398438,32.0161133 C150.226237,32.0161133 152.540771,32.8780111 154.342041,34.6018066 C156.143311,36.3256022 157.586263,39.1049805 158.670898,42.9399414 L158.670898,42.9399414 L172.732422,42.9399414 C172.073893,39.8022461 171.066732,36.8776042 169.710938,34.1660156 C168.355143,31.4544271 166.631348,29.1108398 164.539551,27.1352539 C162.447754,25.159668 159.987956,23.6005046 157.160156,22.4577637 C154.332357,21.3150228 151.117188,20.7436523 147.514648,20.7436523 C143.408529,20.7436523 139.689779,21.4796549 136.358398,22.9516602 C133.027018,24.4236654 130.17985,26.4864095 127.816895,29.1398926 C125.453939,31.7933757 123.623617,34.9504395 122.325928,38.611084 C121.028239,42.2717285 120.379395,46.2713216 120.379395,50.6098633 C120.379395,53.2439779 120.611816,55.8490397 121.07666,58.4250488 C121.541504,61.0010579 122.248454,63.4608561 123.19751,65.8044434 C124.146566,68.1480306 125.337728,70.3269857 126.770996,72.3413086 C128.204264,74.3556315 129.899007,76.0891113 131.855225,77.541748 C133.811442,78.9943848 136.029134,80.1371257 138.508301,80.9699707 C140.987467,81.8028158 143.757161,82.2192383 146.817383,82.2192383 Z M195.277344,81.0571289 L195.277344,60.8364258 C195.935872,60.1778971 196.61377,59.4806315 197.311035,58.7446289 C197.930827,58.0861003 198.628092,57.3694661 199.402832,56.5947266 L199.402832,56.5947266 L201.901367,54.0961914 L217.647949,81.0571289 L233.162109,81.0571289 C229.637044,75.0528971 226.024821,68.9518229 222.325439,62.7539062 C218.626058,56.5559896 215.013835,50.4549154 211.48877,44.4506836 L211.48877,44.4506836 L234.033691,21.9057617 L217.299316,21.9057617 L195.277344,43.5791016 L195.277344,0.0581054688 L181.564453,0.0581054688 L181.564453,81.0571289 L195.277344,81.0571289 Z" id="Pack" fill="#284074"></path>
            <path d="M253.324707,13.7128906 L253.324707,0.0581054688 L239.611816,0.0581054688 L239.611816,13.7128906 L253.324707,13.7128906 Z M253.324707,81.0571289 L253.324707,21.9057617 L239.611816,21.9057617 L239.611816,81.0571289 L253.324707,81.0571289 Z M283.365234,82.2192383 C284.759766,82.2192383 286.531982,82.0933431 288.681885,81.8415527 C290.831787,81.5897624 293.107585,80.9990234 295.509277,80.0693359 L295.509277,80.0693359 L295.509277,69.2617188 C293.262533,70.1526693 291.5,70.6659342 290.22168,70.8015137 C288.943359,70.9370931 288.091146,71.0048828 287.665039,71.0048828 C286.309245,71.0048828 285.253662,70.4625651 284.498291,69.3779297 C283.74292,68.2932943 283.365234,66.9375 283.365234,65.3105469 L283.365234,65.3105469 L283.365234,33.1201172 L294.230957,33.1201172 L294.230957,21.9057617 L283.365234,21.9057617 L283.365234,5.63623047 L269.652344,5.63623047 L269.652344,21.9057617 L261.227051,21.9057617 L261.227051,33.1201172 L269.652344,33.1201172 L269.652344,66.8212891 C269.652344,69.1455078 270.020345,71.2566732 270.756348,73.1547852 C271.49235,75.0528971 272.489827,76.670166 273.748779,78.0065918 C275.007731,79.3430176 276.470052,80.3792318 278.135742,81.1152344 C279.801432,81.851237 281.544596,82.2192383 283.365234,82.2192383 Z" id="it" fill="#376BB4"></path>
        </g>
        <g id="Group-2" transform="translate(2.000000, 16.000000)">
            <ellipse id="Oval" stroke="#284074" stroke-width="6.3" cx="212.923163" cy="9.45" rx="9.47104677" ry="9.45"></ellipse>
            <ellipse id="Oval-Copy-2" stroke="#284074" stroke-width="6.3" cx="22.0991091" cy="10.15" rx="9.47104677" ry="9.45"></ellipse>
            <rect id="Rectangle" fill="#284074" x="209.766147" y="21.7" width="6.31403118" height="20.3"></rect>
            <rect id="Rectangle-Copy-82" fill="#284074" x="18.9420935" y="22.4" width="6.31403118" height="20.3"></rect>
            <g id="Path">
                <use fill="black" fill-opacity="1" filter="url(#filter-2)" xlink:href="#path-1"></use>
                <use fill="#386CB5" fill-rule="evenodd" xlink:href="#path-1"></use>
            </g>
            <g id="Path">
                <use fill="black" fill-opacity="1" filter="url(#filter-4)" xlink:href="#path-3"></use>
                <use fill="#284074" fill-rule="evenodd" xlink:href="#path-3"></use>
            </g>
            <g id="Path">
                <use fill="black" fill-opacity="1" filter="url(#filter-6)" xlink:href="#path-5"></use>
                <use fill="#284074" fill-rule="evenodd" xlink:href="#path-5"></use>
            </g>
            <g id="Path-Copy-4" transform="translate(16.837416, 68.250000) scale(-1, 1) translate(-16.837416, -68.250000) ">
                <use fill="black" fill-opacity="1" filter="url(#filter-8)" xlink:href="#path-7"></use>
                <use fill="#284074" fill-rule="evenodd" xlink:href="#path-7"></use>
            </g>
            <path d="M72.2090612,38.3452093 C78.2398646,34.8545708 87.2087159,35.9672507 90.8400239,42.2568605 C94.4713318,48.5464704 92.1887132,59.0146852 86.1579098,62.5053237 C80.1271064,65.9959622 71.9553343,67.1377128 68.1762627,58.6601974 C64.3971912,50.182682 66.1782578,41.8358477 72.2090612,38.3452093 Z" id="Path-Copy" fill="#284074" transform="translate(79.388015, 50.759841) rotate(120.000000) translate(-79.388015, -50.759841) "></path>
            <path d="M153.140352,37.4629089 C159.463375,33.8146842 166.014405,41.3484591 167.832958,43.9855106 C169.651511,46.6225621 171.790148,52.9780756 166.97971,58.9079936 C162.169273,64.8379115 161.919914,64.1990585 156.196257,63.4861183 C152.380485,63.0108249 148.707957,61.2500489 145.178673,58.2037903 C143.125985,55.3139811 142.853252,51.905853 144.360473,47.9794058 C146.621306,42.089735 146.817329,41.1111336 153.140352,37.4629089 Z" id="Path-Copy-3" fill="#284074" transform="translate(156.659034, 50.209536) rotate(69.000000) translate(-156.659034, -50.209536) "></path>
            <g id="Path-5-Copy">
                <use fill="black" fill-opacity="1" filter="url(#filter-10)" xlink:href="#path-9"></use>
                <use fill="#386CB5" fill-rule="evenodd" xlink:href="#path-9"></use>
            </g>
            <g id="Path-6-Copy">
                <use fill="black" fill-opacity="1" filter="url(#filter-12)" xlink:href="#path-11"></use>
                <use fill="#386CB5" fill-rule="evenodd" xlink:href="#path-11"></use>
            </g>
            <g id="Path-7-Copy">
                <use fill="black" fill-opacity="1" filter="url(#filter-14)" xlink:href="#path-13"></use>
                <use fill="#386CB5" fill-rule="evenodd" xlink:href="#path-13"></use>
            </g>
            <path d="M88.3736742,88.9 L170.500668,88.9 C175.913059,88.9 180.300668,93.2876095 180.300668,98.7 L180.300668,101.5 C180.300668,106.912391 175.913059,111.3 170.500668,111.3 L70.5745956,111.3" id="Path" fill="#3769B1"></path>
            <path d="M70.4413117,111.3 L66.6262806,111.3 C61.2138901,111.3 56.8262806,106.912391 56.8262806,101.5 L56.8262806,98.7 C56.8262806,93.2876095 61.2138901,88.9 66.6262806,88.9 L88.2240308,88.9 L70.4413117,111.3 Z" id="Path" fill="#284074"></path>
            <path d="M91.228127,95.2 L169.404548,95.2 C172.125452,95.2 174.33118,97.5505051 174.33118,100.45 C174.33118,103.349495 172.125452,105.7 169.404548,105.7 L84.7311804,105.7 L91.228127,95.2 Z" id="Path" fill="#284074"></path>
            <path d="M170.677812,105.7 L67.3776513,105.7 C64.5905624,105.7 62.3311804,103.349495 62.3311804,100.45 C62.3311804,97.5505051 64.5905624,95.2 67.3776513,95.2 L170.677812,95.2 C173.113391,96.0501101 174.33118,97.8001101 174.33118,100.45 C174.33118,103.09989 173.113391,104.84989 170.677812,105.7 Z" id="Path" fill="#E3E3E3"></path>
            <g id="Rectangle">
                <use fill="black" fill-opacity="1" filter="url(#filter-16)" xlink:href="#path-15"></use>
                <use fill="#E3E3E3" fill-rule="evenodd" xlink:href="#path-15"></use>
            </g>
            <g id="Rectangle" transform="translate(202.399777, 208.600000) scale(-1, 1) translate(-202.399777, -208.600000) ">
                <use fill="black" fill-opacity="1" filter="url(#filter-18)" xlink:href="#path-17"></use>
                <use fill="#E3E3E3" fill-rule="evenodd" xlink:href="#path-17"></use>
            </g>
            <path d="M210.467706,185.5 C210.467706,187.338613 210.467706,188.331669 210.467706,188.479167 C210.467706,188.700414 210.613254,189.286154 210.720702,189.464804 C210.82815,189.643454 211.917642,189.889964 212.309587,189.464804 C212.570884,189.181364 212.637326,188.324662 212.508913,186.894699 L210.467706,185.5 Z" id="Path-2" fill="#386CB5" transform="translate(211.520045, 187.600000) scale(-1, 1) translate(-211.520045, -187.600000) "></path>
            <path d="M156.712695,34.3 C165.991079,34.3 173.512695,41.8216162 173.512695,51.1 C173.512695,60.3783838 165.991079,67.9 156.712695,67.9 C147.434311,67.9 139.912695,60.3783838 139.912695,51.1 C139.912695,41.8216162 147.434311,34.3 156.712695,34.3 Z M156.362695,36.4 C148.437409,36.4 142.012695,42.8247138 142.012695,50.75 C142.012695,58.6752862 148.437409,65.1 156.362695,65.1 C164.287981,65.1 170.712695,58.6752862 170.712695,50.75 C170.712695,42.8247138 164.287981,36.4 156.362695,36.4 Z" id="Combined-Shape" stroke="#E3E3E3" stroke-width="4.2" fill="#386CB5"></path>
            <path d="M80.4126949,34.3 C89.6910787,34.3 97.2126949,41.8216162 97.2126949,51.1 C97.2126949,60.3783838 89.6910787,67.9 80.4126949,67.9 C71.1343111,67.9 63.6126949,60.3783838 63.6126949,51.1 C63.6126949,41.8216162 71.1343111,34.3 80.4126949,34.3 Z M80.0626949,37.1 C72.1374087,37.1 65.7126949,43.5247138 65.7126949,51.45 C65.7126949,59.3752862 72.1374087,65.8 80.0626949,65.8 C87.987981,65.8 94.4126949,59.3752862 94.4126949,51.45 C94.4126949,43.5247138 87.987981,37.1 80.0626949,37.1 Z" id="Combined-Shape-Copy" stroke="#E3E3E3" stroke-width="4.2" fill="#284074"></path>
        </g>
    </g>
</svg>
