<?xml version="1.0" encoding="UTF-8"?>
<svg width="159px" height="159px" viewBox="0 0 159 159" version="1.1" xmlns="http://www.w3.org/2000/svg" xmlns:xlink="http://www.w3.org/1999/xlink">
    <!-- Generator: Sketch 55.2 (78181) - https://sketchapp.com -->
    <title>Artboard</title>
    <desc>Created with Sketch.</desc>
    <g id="Artboard" stroke="none" stroke-width="1" fill="none" fill-rule="evenodd">
        <rect fill="#FFFFFF" x="0" y="0" width="159" height="159"></rect>
        <g id="Packit" transform="translate(20.000000, 63.000000)" fill-rule="nonzero">
            <path d="M5.48515633,32.422852 L5.48515633,19.3839847 L12.8296877,19.3839847 C14.4876304,19.3839847 15.9596357,19.1089521 17.2457034,18.558887 C18.5317711,18.0088219 19.6164065,17.2805667 20.4996097,16.3741213 C21.3828128,15.467676 22.0529626,14.429525 22.5100589,13.2596682 C22.9671553,12.0898114 23.1957035,10.8928387 23.1957035,9.66875014 C23.1957035,8.50664075 22.9671553,7.35227876 22.5100589,6.20566415 C22.0529626,5.05904955 21.3866865,4.0247722 20.5112308,3.10283208 C19.635775,2.18089196 18.5550133,1.43326825 17.2689456,0.85996095 C15.9828778,0.28665365 14.5031252,0 12.8296877,0 L12.8296877,0 L0,0 L0,32.422852 L5.48515633,32.422852 Z M11.6675783,14.7820315 L5.48515633,14.7820315 L5.48515633,4.62519538 L11.6675783,4.62519538 C12.6437502,4.62519538 13.5075848,4.74915372 14.2590822,4.99707039 C15.0105797,5.24498706 15.6419924,5.58974618 16.1533206,6.03134775 C16.6646487,6.47294932 17.0520185,6.99977224 17.3154299,7.61181652 C17.5788414,8.2238608 17.7105471,8.88626315 17.7105471,9.59902358 C17.7105471,10.3272788 17.6059573,11.0051759 17.3967776,11.632715 C17.1875979,12.2602541 16.8467125,12.8064455 16.3741213,13.2712893 C15.9015302,13.736133 15.2817385,14.1041343 14.5147463,14.3752932 C13.7477541,14.646452 12.7986981,14.7820315 11.6675783,14.7820315 L11.6675783,14.7820315 Z M43.7125007,32.8876958 C43.8519538,32.8876958 44.0185228,32.8838221 44.2122077,32.8760747 C44.4058926,32.8683273 44.6383145,32.8295903 44.9094733,32.7598638 C45.1806322,32.6901372 45.4866543,32.5816737 45.8275397,32.4344731 C46.1684252,32.2872726 46.5635424,32.0742192 47.0128913,31.795313 L47.0128913,31.795313 L47.0128913,27.9371098 C46.5325528,28.2005213 46.145183,28.3515955 45.8507819,28.3903325 C45.5563809,28.4290694 45.3859382,28.4484379 45.3394538,28.4484379 C44.9675788,28.4484379 44.6809251,28.3206059 44.4794929,28.0649418 C44.2780606,27.8092778 44.1773444,27.5264978 44.1773444,27.216602 L44.1773444,27.216602 L44.1773444,15.7349612 C44.1773444,14.4179039 43.9139329,13.2906578 43.38711,12.3532228 C42.8602871,11.4157879 42.1552741,10.644922 41.2720709,10.0406251 C40.3888678,9.43632827 39.3700852,8.9947267 38.2157232,8.71582044 C37.0613612,8.43691419 35.8488938,8.29746106 34.5783208,8.29746106 C33.4162114,8.29746106 32.2734705,8.46015638 31.1500981,8.78554701 C30.0267257,9.11093764 29.0156905,9.60677098 28.1169926,10.273047 C27.2182947,10.9393231 26.4784184,11.7799155 25.8973637,12.7948244 C25.316309,13.8097333 24.9792972,14.9989586 24.8863285,16.3625002 L24.8863285,16.3625002 L30.4412114,16.3625002 C30.5186854,15.7582034 30.6891281,15.2352541 30.9525395,14.7936526 C31.215951,14.352051 31.5374679,13.9917971 31.9170903,13.7128908 C32.2967127,13.4339846 32.7189458,13.2286786 33.1837896,13.0969729 C33.6486333,12.9652671 34.1134771,12.8994143 34.5783208,12.8994143 C35.0431646,12.8994143 35.5196294,12.9458986 36.0077154,13.0388674 C36.4958013,13.1318361 36.9374029,13.2829104 37.3325201,13.49209 C37.7276373,13.7012697 38.0530279,13.9724286 38.308692,14.3055666 C38.564356,14.6387046 38.6921881,15.0531903 38.6921881,15.5490237 C38.6921881,16.0603518 38.4868821,16.4980797 38.0762701,16.8622073 C37.6656581,17.2263349 37.1233404,17.5555992 36.4493169,17.8500003 C35.7752935,18.1444013 35.0083013,18.4233076 34.1483404,18.686719 C33.2883794,18.9501305 32.4129237,19.225163 31.5219731,19.5118167 C30.6310226,19.7984703 29.7555668,20.1199873 28.8956059,20.4763675 C28.0356449,20.8327477 27.2686528,21.2588545 26.5946293,21.7546878 C25.9206059,22.2505212 25.3782881,22.8315759 24.9676762,23.4978519 C24.5570642,24.164128 24.3517582,24.9543624 24.3517582,25.8685551 C24.3517582,26.9222009 24.5454431,27.882878 24.9328129,28.7505864 C25.3201827,29.6182947 25.854753,30.358171 26.5365238,30.9702153 C27.2182947,31.5822596 28.0201502,32.0548507 28.9420903,32.3879888 C29.8640304,32.7211268 30.8595708,32.8876958 31.9287114,32.8876958 C32.5794927,32.8876958 33.2070317,32.833464 33.8113286,32.7250005 C34.4156255,32.6165369 35.0199224,32.422852 35.6242193,32.1439458 C36.2285162,31.8650395 36.8405604,31.4892908 37.4603521,31.0166997 C38.0801438,30.5441085 38.7386725,29.9436853 39.4359381,29.2154301 C39.6063808,29.7112635 39.8194342,30.1799809 40.0750983,30.6215825 C40.3307623,31.0631841 40.6329108,31.4505539 40.9815436,31.7836919 C41.3301764,32.1168299 41.733041,32.3841151 42.1901373,32.5855474 C42.6472337,32.7869797 43.1546881,32.8876958 43.7125007,32.8876958 Z M32.4400395,28.4019535 C32.1146489,28.4019535 31.7892583,28.3515955 31.4638677,28.2508793 C31.138477,28.1501632 30.8479497,27.9913416 30.5922856,27.7744145 C30.3366215,27.5574874 30.1313156,27.2785811 29.9763676,26.9376957 C29.8214197,26.5968103 29.7439458,26.1861983 29.7439458,25.7058598 C29.7439458,25.2100264 29.9182622,24.7800459 30.266895,24.4159183 C30.6155278,24.0517907 31.0610031,23.7341475 31.6033208,23.4629886 C32.1456385,23.1918298 32.7538091,22.9555342 33.4278325,22.7541019 C34.101856,22.5526696 34.7720057,22.3628584 35.4382818,22.1846683 C36.1045578,22.0064782 36.7243495,21.8321618 37.2976568,21.6617191 C37.8709641,21.4912764 38.3358079,21.2975915 38.6921881,21.0806644 L38.6921881,21.0806644 L38.6921881,24.0556644 C37.8089849,25.5121749 36.8134446,26.600684 35.7055669,27.3211918 C34.5976893,28.0416996 33.5091802,28.4019535 32.4400395,28.4019535 Z M58.726954,32.8876958 C60.1834644,32.8876958 61.5082691,32.6630213 62.7013681,32.2136724 C63.8944671,31.7643234 64.9326182,31.1135421 65.8158213,30.2613286 C66.6990244,29.409115 67.4195323,28.3787114 67.9773448,27.1701176 C68.5351573,25.9615238 68.9070323,24.5902347 69.0929698,23.0562503 L69.0929698,23.0562503 L63.3986338,23.0562503 C63.2591806,23.7845056 63.0654957,24.4701501 62.8175791,25.113184 C62.5696624,25.7562178 62.2558929,26.3217777 61.8762705,26.8098637 C61.4966481,27.2979496 61.0550465,27.6853194 60.5514657,27.9719731 C60.047885,28.2586267 59.4861988,28.4019535 58.8664071,28.4019535 C58.0606779,28.4019535 57.3362964,28.1695317 56.6932626,27.7046879 C56.0502287,27.2398442 55.5001636,26.6277999 55.0430672,25.8685551 C54.5859709,25.1093103 54.237338,24.2377282 53.9971688,23.2538089 C53.7569995,22.2698897 53.6369149,21.2666019 53.6369149,20.2439456 C53.6369149,19.2677737 53.7531258,18.3303388 53.9855477,17.4316409 C54.2179696,16.532943 54.5627287,15.7427086 55.019825,15.0609377 C55.4769214,14.3791669 56.0347339,13.8329755 56.6932626,13.4223635 C57.3517912,13.0117515 58.1071623,12.8064455 58.9593759,12.8064455 C60.0904957,12.8064455 61.0163095,13.1512046 61.7368173,13.8407229 C62.4573251,14.5302411 63.0345061,15.6419924 63.4683603,17.1759768 L63.4683603,17.1759768 L69.0929698,17.1759768 C68.8295583,15.9208987 68.4266937,14.7510419 67.884376,13.6664065 C67.3420583,12.581771 66.6525401,11.6443361 65.8158213,10.8541017 C64.9791025,10.0638673 63.9951832,9.44020196 62.8640634,8.9831056 C61.7329436,8.52600924 60.4468759,8.29746106 59.0058603,8.29746106 C57.3634123,8.29746106 55.8759123,8.59186211 54.5433602,9.1806642 C53.2108081,9.76946629 52.0719409,10.594564 51.1267586,11.6559572 C50.1815763,12.7173504 49.4494474,13.980176 48.9303718,15.4444338 C48.4112963,16.9086917 48.1517585,18.5085289 48.1517585,20.2439456 C48.1517585,21.2975915 48.2447273,22.3396162 48.4306648,23.3700199 C48.6166023,24.4004235 48.8993822,25.3843428 49.2790046,26.3217777 C49.658627,27.2592126 50.1350919,28.1307947 50.7083992,28.9365239 C51.2817065,29.742253 51.9596036,30.435645 52.7420906,31.0166997 C53.5245776,31.5977544 54.4116545,32.0548507 55.4033211,32.3879888 C56.3949878,32.7211268 57.5028654,32.8876958 58.726954,32.8876958 Z M78.1109387,32.422852 L78.1109387,24.3345707 C78.3743501,24.0711592 78.645509,23.792253 78.9244152,23.4978519 C79.1723319,23.2344405 79.4512382,22.9477868 79.761134,22.637891 L79.761134,22.637891 L80.7605481,21.6384769 L87.059181,32.422852 L93.2648451,32.422852 C91.8548191,30.0211593 90.4099297,27.5807296 88.9301771,25.1015629 C87.4504245,22.6223962 86.0055351,20.1819664 84.5955091,17.7802737 L84.5955091,17.7802737 L93.613478,8.76230482 L86.9197279,8.76230482 L78.1109387,17.4316409 L78.1109387,0.0232421878 L72.6257823,0.0232421878 L72.6257823,32.422852 L78.1109387,32.422852 Z" id="Pack" fill="#284074"></path>
            <path d="M101.329884,5.48515633 L101.329884,0.0232421878 L95.844728,0.0232421878 L95.844728,5.48515633 L101.329884,5.48515633 Z M101.329884,32.422852 L101.329884,8.76230482 L95.844728,8.76230482 L95.844728,32.422852 L101.329884,32.422852 Z M113.346095,32.8876958 C113.903908,32.8876958 114.612795,32.8373377 115.472756,32.7366216 C116.332717,32.6359054 117.243036,32.3996099 118.203713,32.0277349 L118.203713,32.0277349 L118.203713,27.7046879 C117.305015,28.0610681 116.600002,28.2663741 116.088674,28.3206059 C115.577345,28.3748377 115.23646,28.4019535 115.066017,28.4019535 C114.5237,28.4019535 114.101467,28.1850265 113.799318,27.7511723 C113.49717,27.3173181 113.346095,26.7750004 113.346095,26.1242191 L113.346095,26.1242191 L113.346095,13.2480471 L117.692385,13.2480471 L117.692385,8.76230482 L113.346095,8.76230482 L113.346095,2.25449222 L107.860939,2.25449222 L107.860939,8.76230482 L104.490822,8.76230482 L104.490822,13.2480471 L107.860939,13.2480471 L107.860939,26.728516 C107.860939,27.6582035 108.00814,28.5026697 108.302541,29.2619145 C108.596942,30.0211593 108.995933,30.6680669 109.499513,31.2026372 C110.003094,31.7372075 110.588022,32.1516932 111.254299,32.4460942 C111.920575,32.7404953 112.61784,32.8876958 113.346095,32.8876958 Z" id="it" fill="#376BB4"></path>
        </g>
    </g>
</svg>
